<svg xmlns="http://www.w3.org/2000/svg" viewBox="0 0 253.86 77.24"><defs><style>.cls-1{fill:#d62358;}</style></defs><g id="Layer_2" data-name="Layer 2"><g id="Layer_1-2" data-name="Layer 1"><circle id="Ellipse_4" data-name="Ellipse 4" class="cls-1" cx="29.79" cy="9.93" r="9.93"/><circle id="Ellipse_5" data-name="Ellipse 5" class="cls-1" cx="29.79" cy="36.42" r="14.35"/><ellipse id="Ellipse_6" data-name="Ellipse 6" class="cls-1" cx="29.79" cy="65.11" rx="29.79" ry="12.14"/><path class="cls-1" d="M72.89,26.11l8.89,18,8.88-18h3.28L83.25,47.75v8H80.31v-8L69.61,26.11Z"/><path class="cls-1" d="M124.42,41A15.56,15.56,0,1,1,108.86,25.4,15.58,15.58,0,0,1,124.42,41ZM96.25,41a12.62,12.62,0,1,0,12.61-12.62A12.59,12.59,0,0,0,96.25,41Z"/><path class="cls-1" d="M144.37,25.36a16.81,16.81,0,0,1,11,4.08l-1.93,2.22a13.85,13.85,0,0,0-9.12-3.36c-8.49,0-13.44,5.57-13.44,12.63s5.95,12.64,13.44,12.64c3.07,0,6.69-1,8.36-2.56l-.09-9.25h-6.26V38.7h9.17l.13,13.47-.35.42c-2.53,3-7.1,3.93-11,3.93-9,0-16.38-6.94-16.38-15.58s6.54-15.57,16.38-15.57Z"/><path class="cls-1" d="M172.05,26.11l6.55,18,4.25,11.66h-3.13l-2.17-6-.37-1H163.72l-.37,1-2.17,6h-3.13L162.3,44.1l6.55-18Zm-7,19-.27.74h11.32l-.27-.74-5.39-14.8Z"/><path class="cls-1" d="M182.36,26.11l9.9,27.16,9.89-27.16h3.13l-10.8,29.65H190l-10.8-29.65Z"/><path class="cls-1" d="M215.67,26.11l6.55,18,4.25,11.66h-3.13l-2.17-6-.37-1H207.34l-.37,1-2.17,6h-3.13l4.25-11.66,6.55-18Zm-7,19-.27.74h11.32l-.27-.74-5.39-14.8Z"/><path class="cls-1" d="M232.39,26.11l18.53,24.64V26.11h2.94V55.76h-2.94L232.39,31V55.76h-2.94V26.11Z"/></g></g></svg>